<svg width="35" height="35" viewBox="0 0 35 35" fill="none" xmlns="http://www.w3.org/2000/svg">
<path d="M2.82257 3.3871H19.7581V7.33871C19.7581 7.65101 20.0103 7.90323 20.3226 7.90323H24.2742V12.4194H25.4032V7.33871C25.4032 7.18242 25.3395 7.04129 25.2373 6.93903L20.7228 2.42455C20.62 2.32174 20.4789 2.25806 20.3226 2.25806H5.08064V1.12903H26.5323V13.5484H27.6613V0.564516C27.6613 0.252213 27.4091 0 27.0968 0H4.51612C4.20382 0 3.95161 0.252213 3.95161 0.564516V2.25806H2.25806C1.94576 2.25806 1.69354 2.51028 1.69354 2.82258V34.4355C1.69354 34.7478 1.94576 35 2.25806 35H21.4516V33.871H2.82257V3.3871ZM20.8871 4.18536L23.4759 6.77419H20.8871V4.18536Z" fill="#039be5"/>
<path d="M32.7419 16.9355H31.8919C29.3711 16.9355 27.0003 15.8252 25.387 13.8894L25.2729 13.7521C25.059 13.4941 24.619 13.4941 24.4051 13.7521L24.291 13.8888C22.6771 15.8252 20.3063 16.9355 17.7856 16.9355H16.9355C16.6232 16.9355 16.371 17.1877 16.371 17.5V26.6428C16.371 28.8659 17.57 30.9321 19.5001 32.0346L24.5587 34.9256C24.6452 34.9752 24.7422 35 24.8387 35C24.9352 35 25.0322 34.9752 25.1188 34.9256L30.1774 32.0346C32.1074 30.9321 33.3065 28.8659 33.3065 26.6428V17.5C33.3065 17.1877 33.0542 16.9355 32.7419 16.9355ZM32.1774 26.6428C32.1774 28.4618 31.197 30.152 29.6173 31.0539L24.8387 33.7858L20.0602 31.0547C18.4805 30.152 17.5 28.4618 17.5 26.6428V18.0645H17.7856C20.4794 18.0645 23.0233 16.9451 24.8387 14.9759C26.6535 16.9451 29.198 18.0645 31.8919 18.0645H32.1774V26.6428Z" fill="#039be5"/>
<path d="M24.8387 18.629C21.4149 18.629 18.629 21.4149 18.629 24.8387C18.629 28.2625 21.4149 31.0484 24.8387 31.0484C28.2625 31.0484 31.0484 28.2625 31.0484 24.8387C31.0484 21.4149 28.2625 18.629 24.8387 18.629ZM24.8387 29.9193C22.0371 29.9193 19.7581 27.6403 19.7581 24.8387C19.7581 22.0371 22.0371 19.7581 24.8387 19.7581C27.6403 19.7581 29.9193 22.0371 29.9193 24.8387C29.9193 27.6403 27.6403 29.9193 24.8387 29.9193Z" fill="#039be5"/>
<path d="M24.5694 26.5937L23.5443 25.5686L22.746 26.3668L24.4396 28.0604C24.5463 28.1676 24.6907 28.2258 24.8387 28.2258C24.8845 28.2258 24.9308 28.2202 24.9765 28.2089C25.1695 28.1602 25.3219 28.0135 25.3795 27.8233L27.0731 22.1782L25.9914 21.854L24.5694 26.5937Z" fill="#039be5"/>
<path d="M3.95161 9.03223H18.629V10.1613H3.95161V9.03223Z" fill="#039be5"/>
<path d="M3.95161 11.2903H18.629V12.4193H3.95161V11.2903Z" fill="#039be5"/>
<path d="M3.95161 13.5483H18.629V14.6774H3.95161V13.5483Z" fill="#039be5"/>
<path d="M3.95161 15.8064H15.2419V16.9354H3.95161V15.8064Z" fill="#039be5"/>
<path d="M3.95161 18.0646H15.2419V19.1936H3.95161V18.0646Z" fill="#039be5"/>
<path d="M3.95161 20.3226H15.2419V21.4517H3.95161V20.3226Z" fill="#039be5"/>
<path d="M3.95161 27.0968H15.2419V28.2258H3.95161V27.0968Z" fill="#039be5"/>
<path d="M3.95161 29.3549H15.2419V30.4839H3.95161V29.3549Z" fill="#039be5"/>
<path d="M3.95161 31.6129H15.2419V32.7419H3.95161V31.6129Z" fill="#039be5"/>
<path d="M4.51613 4.51611H5.64516V5.64515H4.51613V4.51611Z" fill="#039be5"/>
<path d="M6.7742 4.51611H7.90323V5.64515H6.7742V4.51611Z" fill="#039be5"/>
<path d="M9.03226 4.51611H10.1613V5.64515H9.03226V4.51611Z" fill="#039be5"/>
<path d="M11.2903 4.51611H18.629V5.64515H11.2903V4.51611Z" fill="#039be5"/>
</svg>
