<svg width="37" height="37" viewBox="0 0 37 37" fill="none" xmlns="http://www.w3.org/2000/svg">
<path d="M29.6 22.3734L23.7031 20.4078V18.6156C24.4547 17.6906 24.975 16.65 25.2641 15.4937L27.0562 14.1641C27.5187 13.8172 27.75 13.2969 27.75 12.7766V12.1984C27.75 11.2156 26.9984 10.4641 26.0156 10.4641H25.4375V7.05312L26.1891 4.33594C26.4781 3.41094 25.9 2.42813 24.975 2.19687C24.9172 2.19687 24.8594 2.13906 24.7437 2.13906L18.5 1.15625L12.1984 2.13906C11.2734 2.3125 10.5797 3.17969 10.7531 4.10469C10.7531 4.1625 10.7531 4.22031 10.8109 4.33594L11.5625 7.05312V10.4062H10.9844C10.0016 10.4062 9.25 11.1578 9.25 12.1406V12.7188C9.25 13.2391 9.48125 13.7594 9.94375 14.1062L11.7359 15.4359C12.025 16.5922 12.5453 17.6906 13.2969 18.5578V20.35L7.4 22.3156C5.72344 22.8937 4.625 24.3969 4.625 26.1313V35.8438H32.375V26.1891C32.375 24.4547 31.2766 22.8938 29.6 22.3734ZM14.4531 19.7141C14.5109 19.7719 14.5687 19.8297 14.6844 19.8875L15.1469 20.2344C15.9563 20.8125 16.9391 21.2172 17.9797 21.3328V23.9922L14.5109 22.2578V19.7141H14.4531ZM19.0781 21.275C20.1187 21.1594 21.0438 20.8125 21.9109 20.1766L22.3734 19.8297C22.4312 19.7719 22.4891 19.7141 22.6047 19.6562V22.1422L19.1359 23.8766L19.0781 21.275ZM24.2812 7.51562V8.67188H12.7188V7.51562H24.2812ZM23.7031 9.82812C21.1594 12.7188 16.7078 12.95 13.875 10.3484C13.7016 10.175 13.5281 10.0016 13.3547 9.82812H23.7031ZM26.0156 11.5625C26.3625 11.5625 26.5938 11.7937 26.5938 12.1406V12.7188C26.5938 12.8922 26.5359 13.0656 26.3625 13.1812L25.4375 13.875V13.8172V11.5625H26.0156ZM11.9672 3.52656C12.0828 3.41094 12.1984 3.29531 12.3719 3.29531L18.5 2.3125L24.6281 3.2375C24.9172 3.29531 25.1484 3.58437 25.0906 3.87344V3.93125L24.3969 6.35938H12.6031L11.9094 3.98906C11.8516 3.81562 11.8516 3.64219 11.9672 3.52656ZM10.6375 13.1812C10.4641 13.0656 10.4062 12.8922 10.4062 12.7188V12.1406C10.4062 11.7937 10.6375 11.5625 10.9844 11.5625H11.5625V13.8172V13.875L10.6375 13.1812ZM12.7188 10.8687C15.8406 14.0484 20.9859 14.1062 24.1656 10.9844C24.2234 10.9266 24.2234 10.9266 24.2812 10.8687V13.8172C24.2812 15.8406 23.2984 17.7484 21.6797 18.9625L21.2172 19.3094C19.5984 20.4656 17.4016 20.4656 15.7828 19.3094L15.3203 18.9625C13.7016 17.7484 12.7188 15.8406 12.7188 13.8172V10.8687ZM5.78125 26.1891C5.78125 24.9172 6.59062 23.8187 7.74687 23.4719L13.2969 21.6219V22.8937L17.3438 24.9172L16.1875 25.6688V34.6875H11.5625V29.4844H10.4062V34.6875H5.78125V26.1891ZM31.2188 34.6875H26.5938V29.4844H25.4375V34.6875H17.3438V26.3047L18.7891 25.3219L23.7031 22.8937V21.6219L29.2531 23.4719C30.4094 23.8766 31.2188 24.975 31.2188 26.1891V34.6875Z" fill="#039be5"/>
<path d="M18.5 30.0625H19.6562V31.2188H18.5V30.0625Z" fill="#039be5"/>
<path d="M18.5 32.375H19.6562V33.5312H18.5V32.375Z" fill="#039be5"/>
<path d="M18.5 27.75H19.6562V28.9062H18.5V27.75Z" fill="#039be5"/>
<path d="M20.8125 27.1719H25.4375V28.3281H20.8125V27.1719Z" fill="#039be5"/>
</svg>
