<svg width="30" height="30" viewBox="0 0 30 30" fill="none" xmlns="http://www.w3.org/2000/svg">
<path d="M0.231323 28.6524L28.6524 0.231323L29.7687 1.34764L1.34764 29.7687L0.231323 28.6524Z" fill="#039be5"/>
<path d="M4.73684 9.47368C7.34921 9.47368 9.47368 7.34921 9.47368 4.73684C9.47368 2.12447 7.34921 0 4.73684 0C2.12447 0 0 2.12447 0 4.73684C0 7.34921 2.12447 9.47368 4.73684 9.47368ZM4.73684 1.57895C6.47842 1.57895 7.89474 2.99526 7.89474 4.73684C7.89474 6.47842 6.47842 7.89474 4.73684 7.89474C2.99526 7.89474 1.57895 6.47842 1.57895 4.73684C1.57895 2.99526 2.99526 1.57895 4.73684 1.57895Z" fill="#039be5"/>
<path d="M25.2631 20.5264C22.6508 20.5264 20.5263 22.6508 20.5263 25.2632C20.5263 27.8756 22.6508 30.0001 25.2631 30.0001C27.8755 30.0001 30 27.8756 30 25.2632C30 22.6508 27.8755 20.5264 25.2631 20.5264ZM25.2631 28.4211C23.5216 28.4211 22.1053 27.0048 22.1053 25.2632C22.1053 23.5216 23.5216 22.1053 25.2631 22.1053C27.0047 22.1053 28.421 23.5216 28.421 25.2632C28.421 27.0048 27.0047 28.4211 25.2631 28.4211Z" fill="#039be5"/>
</svg>
