<svg width="35" height="35" viewBox="0 0 35 35" fill="none" xmlns="http://www.w3.org/2000/svg">
<path d="M34.7997 13.3253L33.9062 12.4319V5.22346C33.9062 2.34356 31.5632 0.000610352 28.6833 0.000610352C27.4984 0.000610352 26.4049 0.397846 25.5276 1.06531C21.6607 -0.833236 16.8467 -0.176918 13.635 3.03474C10.1955 6.4743 9.68726 11.7513 12.1088 15.7348L8.19238 19.6512H6.53795C6.16047 19.6512 5.85435 19.9573 5.85435 20.3348V21.5889H4.60017C4.22269 21.5889 3.91657 21.895 3.91657 22.2725V23.5267H2.66252C2.28504 23.5267 1.97893 23.8327 1.97893 24.2102V25.4644H0.724881C0.543593 25.4644 0.369755 25.5364 0.241513 25.6646L0.200224 25.7059C0.0720506 25.8339 0 26.0078 0 26.1891V30.6247C0 31.0022 0.306113 31.3083 0.683592 31.3083H5.2018C5.38309 31.3083 5.55692 31.2362 5.68516 31.108L13.2258 23.5674C13.4927 23.3004 13.4927 22.8676 13.2258 22.6006C12.9588 22.3336 12.5261 22.3336 12.259 22.6006L4.91858 29.9411H1.36718V26.8313H2.66259C3.04007 26.8313 3.34618 26.5253 3.34618 26.1477V24.8936H4.6003C4.97778 24.8936 5.2839 24.5876 5.2839 24.21V22.9559H6.53808C6.91556 22.9559 7.22167 22.6499 7.22167 22.2723V21.0182H8.47579C8.65708 21.0182 8.83092 20.9462 8.95916 20.818L12.9079 16.8693C13.1339 17.148 13.3762 17.4179 13.6354 17.6771C15.4849 19.5266 17.9111 20.5897 20.5085 20.6996V32.1284C20.5085 33.7114 21.7964 34.9994 23.3795 34.9994H32.1293C33.7123 34.9994 35.0003 33.7114 35.0003 32.1284V13.8086C34.9999 13.6274 34.9279 13.4536 34.7997 13.3253ZM28.6833 1.36773C30.8093 1.36773 32.539 3.09735 32.539 5.22339V11.0646L31.3098 9.83539C31.3037 9.82937 31.2973 9.82425 31.2911 9.8185C31.1639 7.34903 30.1596 4.91667 28.2776 3.03453C27.8281 2.58507 27.347 2.18592 26.8418 1.83653C27.3894 1.5378 28.0168 1.36773 28.6833 1.36773ZM24.8275 7.16514V5.65611C25.0055 5.73616 25.1729 5.84738 25.3188 5.99339C25.6318 6.30641 25.8043 6.72251 25.8043 7.16514C25.8043 7.60776 25.6319 8.02394 25.3188 8.33695C24.6728 8.98308 23.6215 8.98315 22.9754 8.33695C22.3293 7.69082 22.3293 6.63952 22.9754 5.99346C23.1196 5.84922 23.2847 5.73903 23.4603 5.65918V7.16521C23.4603 7.54275 23.7665 7.8488 24.1439 7.8488C24.5214 7.8488 24.8275 7.54262 24.8275 7.16514ZM20.9562 19.3383C18.6552 19.3381 16.3534 18.4621 14.6017 16.7104C11.0979 13.2066 11.0979 7.50529 14.6017 4.0014C16.2991 2.30404 18.5559 1.36923 20.9563 1.36923C22.1965 1.36923 23.3979 1.61936 24.504 2.09452C24.0447 2.70634 23.717 3.42199 23.5618 4.19917C22.9923 4.31066 22.4489 4.58635 22.0087 5.02659C20.8295 6.20578 20.8295 8.12436 22.0087 9.30355C22.5983 9.89315 23.3726 10.1879 24.1472 10.1879C24.9215 10.1879 25.696 9.89308 26.2856 9.30355C26.8568 8.73234 27.1714 7.9728 27.1714 7.16507C27.1714 6.35727 26.8568 5.5978 26.2856 5.02659C25.9022 4.64323 25.4406 4.38538 24.9517 4.25133C25.0986 3.68777 25.3705 3.17446 25.7353 2.74182C26.2994 3.09735 26.8278 3.51845 27.3107 4.00147C29.0081 5.69883 29.9429 7.95558 29.9429 10.356C29.9429 12.7564 29.0081 15.0132 27.3107 16.7106C25.5586 18.4627 23.2578 19.3386 20.9562 19.3383ZM33.6327 32.1286C33.6327 32.9578 32.9581 33.6325 32.1289 33.6325H23.3791C22.5499 33.6325 21.8752 32.9578 21.8752 32.1286V20.6691C24.2941 20.4577 26.5402 19.4146 28.2776 17.6772C29.9595 15.9954 30.9399 13.8741 31.2205 11.6796L33.6327 14.0918V32.1286Z" fill="#039be5"/>
</svg>
