<svg width="19" height="19" viewBox="0 0 19 19" fill="none" xmlns="http://www.w3.org/2000/svg">
<path fill-rule="evenodd" clip-rule="evenodd" d="M1.90766 13.8333L0.66629 18.3333L5.25938 17.0919C6.59388 17.8367 8.08352 18.3333 9.63525 18.3333C14.5697 18.3333 18.6663 14.1746 18.6663 9.27117C18.6663 4.36775 14.5697 0.333252 9.63525 0.333252C4.70079 0.333252 0.66629 4.36775 0.66629 9.27117C0.66629 10.885 1.10079 12.4367 1.90766 13.8333ZM5.78693 15.6332L5.50762 15.4781L2.8387 16.1608L3.55247 13.5539L3.36625 13.2746C2.62143 12.0953 2.21798 10.6987 2.21798 9.27115C2.21798 5.17461 5.53866 1.88497 9.63521 1.88497C13.7318 1.88497 17.1145 5.14356 17.1145 9.27115C17.1145 13.3987 13.7318 16.7815 9.66625 16.7815C8.2697 16.7815 6.93521 16.347 5.78693 15.6332Z" fill="#B3B3B3"/>
<path d="M7.24555 5.11259L6.65591 5.08154C6.46969 5.08154 6.2835 5.14363 6.15937 5.26777C5.88005 5.51604 5.41455 5.98154 5.29041 6.60226C5.07318 7.5333 5.41455 8.65054 6.22145 9.76777C7.02836 10.885 8.58008 12.685 11.3111 13.4609C12.18 13.7091 12.8628 13.554 13.4215 13.2126C13.8559 12.9333 14.1352 12.4988 14.2284 12.0333L14.3214 11.5988C14.3525 11.4746 14.2904 11.3195 14.1663 11.2574L12.2111 10.3574C12.087 10.2953 11.9318 10.3264 11.8387 10.4505L11.0628 11.4436C11.0007 11.5057 10.9076 11.5367 10.8145 11.5057C10.287 11.3195 8.518 10.5746 7.55591 8.71259C7.52487 8.61949 7.52487 8.52636 7.58696 8.46431L8.33178 7.6264C8.39386 7.53331 8.42487 7.40917 8.39386 7.31604L7.49386 5.29881C7.46278 5.20568 7.36969 5.11259 7.24555 5.11259Z" fill="#B3B3B3"/>
</svg>
