<svg width="15" height="14" viewBox="0 0 15 14" fill="none" xmlns="http://www.w3.org/2000/svg">
<path d="M12.7144 0.571533H2.04775C1.31442 0.571533 0.714417 1.17153 0.714417 1.90487V12.5715C0.714417 13.3049 1.31442 13.9049 2.04775 13.9049H12.7144C13.4478 13.9049 14.0478 13.3049 14.0478 12.5715V1.90487C14.0478 1.17153 13.4478 0.571533 12.7144 0.571533ZM7.38108 4.57153C8.84775 4.57153 10.0478 5.77153 10.0478 7.2382C10.0478 8.70487 8.84775 9.90487 7.38108 9.90487C5.91442 9.90487 4.71442 8.70487 4.71442 7.2382C4.71442 5.77153 5.91442 4.57153 7.38108 4.57153ZM2.38108 12.5715C2.18108 12.5715 2.04775 12.4382 2.04775 12.2382V6.57153H3.44775C3.38108 6.77153 3.38108 7.0382 3.38108 7.2382C3.38108 9.4382 5.18108 11.2382 7.38108 11.2382C9.58108 11.2382 11.3811 9.4382 11.3811 7.2382C11.3811 7.0382 11.3811 6.77153 11.3144 6.57153H12.7144V12.2382C12.7144 12.4382 12.5811 12.5715 12.3811 12.5715H2.38108ZM12.7144 3.57153C12.7144 3.77153 12.5811 3.90487 12.3811 3.90487H11.0478C10.8478 3.90487 10.7144 3.77153 10.7144 3.57153V2.2382C10.7144 2.0382 10.8478 1.90487 11.0478 1.90487H12.3811C12.5811 1.90487 12.7144 2.0382 12.7144 2.2382V3.57153Z" fill="#B3B3B3"/>
</svg>
