<svg width="142" height="80" viewBox="0 0 142 80" fill="none" xmlns="http://www.w3.org/2000/svg">
<g clip-path="url(#clip0)">
<path fill-rule="evenodd" clip-rule="evenodd" d="M16.8155 63.791H9.17288L16.7628 56.2011L15.2476 54.686L8.15598 61.7777H2.20984V36.0134H27.9734V61.7777H16.8155V63.791ZM9.17288 63.791H9.17254V63.7906L9.17288 63.791Z" fill="#84FF28"/>
<path fill-rule="evenodd" clip-rule="evenodd" d="M29.2389 34H56.7467V62.8128H29.2389V34Z" fill="#FFFF00"/>
<path fill-rule="evenodd" clip-rule="evenodd" d="M57.2606 34.6587H85.0374V63.7907H57.2606V34.6587Z" fill="#FF3A34"/>
<path fill-rule="evenodd" clip-rule="evenodd" d="M85.5409 34H113.318V62.6981H85.5409V34Z" fill="#669AFF"/>
<path fill-rule="evenodd" clip-rule="evenodd" d="M113.318 34.5627H140.223V63.7909H113.318V34.5627Z" fill="#26FBFF"/>
<path fill-rule="evenodd" clip-rule="evenodd" d="M141.095 34H113.318H111.304H100.146V36.0133H111.304V61.7776H85.5411V36.0133H91.4867L98.5783 43.1049L100.093 41.5899L92.5035 34L92.5031 34.0003V34H85.5411H83.5271H57.7642H55.7502H44.5924V36.0133H55.7502V61.7776H29.9874V36.0133H35.9329L43.0246 43.1049L44.5397 41.5899L36.9496 34L36.9495 34.0003V34H29.9874H27.9734H0.196533V63.7909H9.17259V63.7905L9.17292 63.7909L16.7628 56.2009L15.2477 54.6859L8.15603 61.7776H2.20988V36.0133H27.9734V61.7776H16.8155V63.7909H27.9734H29.9874H55.7502H57.7642H64.7264V63.7905L64.7266 63.7909L72.3165 56.2009L70.8014 54.6859L63.7098 61.7776H57.7642V36.0133H83.5271V61.7776H72.3694V63.7909H83.5271H85.5411H111.304H113.318H120.28V63.7905L120.28 63.7909L127.87 56.2009L126.355 54.6859L119.263 61.7776H113.318V36.0133H139.082V61.7776H127.923V63.7909H141.095V34Z" fill="#003399"/>
<path d="M2.94723 28.5868H1.10034V0.481934H2.98736L13.9081 14.8154L24.8288 0.481934H26.6356V28.5868H24.7887V3.33257L14.5103 16.8229H13.3059L2.94723 3.33257V28.5868Z" fill="#003399"/>
<path d="M47.4772 23.6482C49.8059 26.0839 52.6699 27.3018 56.0693 27.3018C59.4686 27.3018 62.3326 26.0839 64.6613 23.6482C66.99 21.1857 68.1543 18.1477 68.1543 14.5342C68.1543 10.8939 66.99 7.85595 64.6613 5.42021C62.3326 2.98446 59.4686 1.76659 56.0693 1.76659C52.6699 1.76659 49.8059 2.98446 47.4772 5.42021C45.1486 7.85595 43.9842 10.8939 43.9842 14.5342C43.9842 18.1477 45.1486 21.1857 47.4772 23.6482ZM56.0693 29.0684C52.0811 29.0684 48.7487 27.6899 46.072 24.933C43.4221 22.176 42.0972 18.7098 42.0972 14.5342C42.0972 10.4122 43.4221 6.95927 46.072 4.17557C48.7754 1.39183 52.1078 0 56.0693 0C60.004 0 63.323 1.39183 66.0264 4.17557C68.7031 6.9325 70.0414 10.3854 70.0414 14.5342C70.0414 18.7098 68.7031 22.176 66.0264 24.933C63.3498 27.6899 60.0307 29.0684 56.0693 29.0684Z" fill="#003399"/>
<path d="M86.9887 28.5868H85.1418V0.481934H96.8254C99.5288 0.481934 101.65 1.16449 103.189 2.52959C104.728 3.89465 105.498 5.72818 105.498 8.0301C105.498 10.332 104.728 12.1722 103.189 13.5507C101.65 14.9291 99.5288 15.6184 96.8254 15.6184H86.9887V28.5868ZM86.9887 2.20836V13.892H96.6648C98.8864 13.892 100.606 13.3834 101.824 12.3663C103.042 11.3491 103.651 9.90375 103.651 8.0301C103.651 6.1832 103.042 4.75121 101.824 3.73406C100.606 2.71695 98.8864 2.20836 96.6648 2.20836H86.9887Z" fill="#003399"/>
<path d="M140.191 28.5868H120.759V0.481934H139.549V2.20836H122.606V12.6072H136.618V14.3336H122.606V26.8603H140.191V28.5868Z" fill="#003399"/>
<path d="M7.41802 75.8035C7.57564 75.8035 7.71848 75.769 7.84652 75.7V76.9117C7.6298 77.0693 7.3195 77.1481 6.91558 77.1481C6.0881 77.1481 5.58076 76.8034 5.39357 76.1138C4.73355 76.8625 3.84198 77.2368 2.71894 77.2368C1.94072 77.2368 1.2905 77.0201 0.768379 76.5866C0.25614 76.163 0 75.567 0 74.7986C0 74.0302 0.28077 73.4391 0.842268 73.0254C1.39397 72.6018 2.08355 72.39 2.91104 72.39C3.78782 72.39 4.56114 72.5772 5.231 72.9515V72.5525C5.231 71.4985 4.52173 70.9714 3.10313 70.9714C2.27565 70.9714 1.51217 71.1881 0.812738 71.6216V70.2178C1.53186 69.804 2.41354 69.5972 3.45779 69.5972C4.48231 69.5972 5.29752 69.841 5.90338 70.3286C6.50923 70.8163 6.81216 71.4985 6.81216 72.3752V75.0794C6.81216 75.306 6.86879 75.4833 6.9821 75.6114C7.09536 75.7394 7.24067 75.8035 7.41802 75.8035ZM5.231 74.9907V74.1041C4.62024 73.7593 3.97497 73.5869 3.29527 73.5869C2.76326 73.5869 2.34707 73.6854 2.04661 73.8825C1.74615 74.0795 1.5959 74.3553 1.5959 74.71C1.5959 75.0843 1.73627 75.37 2.01704 75.567C2.29781 75.7641 2.67953 75.8626 3.16228 75.8626C3.55631 75.8626 3.9405 75.7813 4.31484 75.6188C4.68919 75.4562 4.99459 75.2469 5.231 74.9907ZM14.4433 77.0447H12.8474V69.7893H19.6152V77.0447H18.0193V71.1931H14.4433V77.0447ZM32.1227 75.8035C32.2803 75.8035 32.4231 75.769 32.5512 75.7V76.9117C32.3345 77.0693 32.0242 77.1481 31.6202 77.1481C30.7928 77.1481 30.2854 76.8034 30.0982 76.1138C29.4382 76.8625 28.5466 77.2368 27.4236 77.2368C26.6454 77.2368 25.9952 77.0201 25.473 76.5866C24.9608 76.163 24.7047 75.567 24.7047 74.7986C24.7047 74.0302 24.9854 73.4391 25.5469 73.0254C26.0986 72.6018 26.7882 72.39 27.6157 72.39C28.4925 72.39 29.2658 72.5772 29.9357 72.9515V72.5525C29.9357 71.4985 29.2264 70.9714 27.8078 70.9714C26.9803 70.9714 26.2168 71.1881 25.5174 71.6216V70.2178C26.2365 69.804 27.1182 69.5972 28.1625 69.5972C29.187 69.5972 30.0022 69.841 30.608 70.3286C31.2139 70.8163 31.5168 71.4985 31.5168 72.3752V75.0794C31.5168 75.306 31.5735 75.4833 31.6868 75.6114C31.8 75.7394 31.9453 75.8035 32.1227 75.8035ZM29.9357 74.9907V74.1041C29.3249 73.7593 28.6796 73.5869 27.9999 73.5869C27.4679 73.5869 27.0517 73.6854 26.7513 73.8825C26.4508 74.0795 26.3006 74.3553 26.3006 74.71C26.3006 75.0843 26.4409 75.37 26.7217 75.567C27.0025 75.7641 27.3842 75.8626 27.8669 75.8626C28.261 75.8626 28.6452 75.7813 29.0195 75.6188C29.3939 75.4562 29.6993 75.2469 29.9357 74.9907ZM41.7339 69.5972C42.7584 69.5972 43.6007 69.9666 44.2607 70.7054C44.9208 71.4344 45.2508 72.3407 45.2508 73.4244C45.2508 74.4982 44.9208 75.3996 44.2607 76.1286C43.6007 76.8674 42.7584 77.2368 41.7339 77.2368C40.6207 77.2368 39.7587 76.8428 39.1479 76.0547V80.0001H37.552V69.7893H39.1479V70.7793C39.7587 69.9912 40.6207 69.5972 41.7339 69.5972ZM41.3054 71.001C40.8423 71.001 40.4187 71.1217 40.0346 71.363C39.6503 71.6044 39.3548 71.9171 39.1479 72.3013V74.5474C39.3548 74.9218 39.6528 75.2296 40.0419 75.471C40.4311 75.7123 40.8522 75.833 41.3054 75.833C41.9752 75.833 42.5318 75.6015 42.9751 75.1385C43.4185 74.6656 43.6401 74.0943 43.6401 73.4244C43.6401 72.7447 43.4185 72.1733 42.9751 71.7103C42.5318 71.2374 41.9752 71.001 41.3054 71.001ZM53.6355 77.0447H52.0396V71.1931H49.5867V69.7893H56.0737V71.1931H53.6355V77.0447ZM67.7537 75.8035C67.9113 75.8035 68.0542 75.769 68.1822 75.7V76.9117C67.9655 77.0693 67.6552 77.1481 67.2513 77.1481C66.4238 77.1481 65.9165 76.8034 65.7293 76.1138C65.0692 76.8625 64.1777 77.2368 63.0546 77.2368C62.2764 77.2368 61.6262 77.0201 61.1041 76.5866C60.5918 76.163 60.3357 75.567 60.3357 74.7986C60.3357 74.0302 60.6165 73.4391 61.178 73.0254C61.7297 72.6018 62.4193 72.39 63.2467 72.39C64.1235 72.39 64.8968 72.5772 65.5667 72.9515V72.5525C65.5667 71.4985 64.8574 70.9714 63.4388 70.9714C62.6114 70.9714 61.8479 71.1881 61.1484 71.6216V70.2178C61.8676 69.804 62.7492 69.5972 63.7935 69.5972C64.818 69.5972 65.6332 69.841 66.2391 70.3286C66.8449 70.8163 67.1479 71.4985 67.1479 72.3752V75.0794C67.1479 75.306 67.2045 75.4833 67.3178 75.6114C67.4311 75.7394 67.5764 75.8035 67.7537 75.8035ZM65.5667 74.9907V74.1041C64.9559 73.7593 64.3107 73.5869 63.631 73.5869C63.099 73.5869 62.6828 73.6854 62.3823 73.8825C62.0819 74.0795 61.9316 74.3553 61.9316 74.71C61.9316 75.0843 62.072 75.37 62.3527 75.567C62.6335 75.7641 63.0152 75.8626 63.498 75.8626C63.892 75.8626 64.2762 75.7813 64.6505 75.6188C65.0249 75.4562 65.3303 75.2469 65.5667 74.9907ZM74.7199 77.0447H73.1831V69.7893H74.7494L77.2319 72.8038L79.7292 69.7893H81.2956V77.0447H79.7588V71.9614L77.5422 74.6361H76.9216L74.7199 71.9614V77.0447ZM86.4737 73.4096C86.4737 72.3161 86.8185 71.4098 87.5081 70.6906C88.2075 69.9617 89.104 69.5972 90.1975 69.5972C90.9462 69.5972 91.5816 69.7942 92.1037 70.1882C93.1282 70.9172 93.6405 72.0107 93.6405 73.4687V73.8825H88.0844C88.1829 74.4932 88.476 74.971 88.9636 75.3158C89.4513 75.6606 90.0694 75.833 90.8181 75.833C91.6456 75.833 92.4239 75.6163 93.1529 75.1828V76.5275C92.483 77.0004 91.5914 77.2368 90.4783 77.2368C89.3651 77.2368 88.4144 76.8822 87.6263 76.1729C86.8579 75.4636 86.4737 74.5425 86.4737 73.4096ZM88.0992 72.6708H92.0298C92.0101 72.2176 91.8377 71.8186 91.5127 71.4738C91.1777 71.1192 90.7147 70.9419 90.1236 70.9419C89.5621 70.9419 89.0966 71.1069 88.7272 71.4369C88.3578 71.7669 88.1484 72.1782 88.0992 72.6708ZM100.459 77.0447H98.863V69.7893H100.459V72.6264H104.138V69.7893H105.734V77.0447H104.138V74.0302H100.459V77.0447ZM114.636 77.0447H113.04V71.1931H110.587V69.7893H117.074V71.1931H114.636V77.0447ZM125.415 75.833C126.085 75.833 126.651 75.6015 127.114 75.1385C127.567 74.6853 127.794 74.1091 127.794 73.4096C127.794 72.72 127.567 72.1486 127.114 71.6955C126.651 71.2325 126.085 71.001 125.415 71.001C124.735 71.001 124.164 71.2325 123.701 71.6955C123.248 72.1486 123.021 72.72 123.021 73.4096C123.021 74.1091 123.248 74.6853 123.701 75.1385C124.164 75.6015 124.735 75.833 125.415 75.833ZM125.415 77.2368C124.252 77.2368 123.297 76.8674 122.548 76.1286C121.799 75.3897 121.425 74.4834 121.425 73.4096C121.425 72.3457 121.799 71.4443 122.548 70.7054C123.297 69.9666 124.252 69.5972 125.415 69.5972C126.558 69.5972 127.508 69.9666 128.267 70.7054C129.015 71.4443 129.39 72.3457 129.39 73.4096C129.39 74.4736 129.015 75.3799 128.267 76.1286C127.508 76.8674 126.558 77.2368 125.415 77.2368ZM138.75 77.0447H134.568V69.7893H138.528C139.237 69.7893 139.794 69.9592 140.198 70.2991C140.602 70.6389 140.804 71.0847 140.804 71.6364C140.804 71.991 140.718 72.3087 140.545 72.5895C140.373 72.8702 140.149 73.0746 139.873 73.2027C140.819 73.4786 141.291 74.0992 141.291 75.0646C141.291 75.6852 141.067 76.1704 140.619 76.5201C140.171 76.8698 139.548 77.0447 138.75 77.0447ZM136.164 73.9711V75.7591H138.469C138.843 75.7591 139.137 75.6803 139.348 75.5227C139.56 75.3651 139.666 75.1484 139.666 74.8725C139.666 74.5868 139.56 74.3652 139.348 74.2076C139.137 74.0499 138.843 73.9711 138.469 73.9711H136.164ZM136.164 71.0749V72.6855H138.144C138.489 72.6855 138.757 72.6141 138.949 72.4713C139.141 72.3284 139.237 72.1339 139.237 71.8876C139.237 71.3458 138.873 71.0749 138.144 71.0749H136.164Z" fill="#003399"/>
</g>
<defs>
<clipPath id="clip0">
<rect width="141.291" height="80" fill="white"/>
</clipPath>
</defs>
</svg>
