<svg width="58" height="35" viewBox="0 0 58 35" fill="none" xmlns="http://www.w3.org/2000/svg">
<path d="M0 0V35H57.179V0H0ZM14.7961 23.3376L13.4807 13.909L16.6732 15.9145L11.2997 11.6623H16.4643L16.9868 17.2082C17.0526 17.8669 17.1055 18.5138 17.1554 19.1795C17.424 18.5423 17.7367 17.8454 18.0984 17.0769L20.6568 11.6623H24.0532L18.0299 23.3374C18.0298 23.3376 14.7961 23.3376 14.7961 23.3376ZM23.3316 23.3376L25.5498 11.6624H28.5895L26.3742 23.3376H23.3316ZM31.5105 23.5032C30.1235 23.5032 28.8698 23.1847 28.1581 22.6504L27.9494 22.4916L28.9767 19.9579L29.3207 20.1637C30.0108 20.5764 30.892 20.8175 31.7388 20.8175C32.3858 20.8175 33.1455 20.5666 33.1455 19.8667C33.1455 19.5011 32.9328 19.1796 31.8457 18.6179C30.693 17.9954 29.3765 17.0682 29.3765 15.397C29.3765 13.0945 31.3017 11.4851 34.057 11.4851C35.1843 11.4851 36.087 11.6821 36.8123 12.082L37.0691 12.2232L36.0978 14.8256L35.7508 14.6354C35.6155 14.5599 34.8813 14.1884 33.9295 14.1884C32.9513 14.1884 32.5357 14.6138 32.5357 15.0068C32.5357 15.4283 33.0739 15.7625 33.9638 16.2595C35.5469 17.0907 36.3192 18.1395 36.3192 19.4618C36.3193 21.8791 34.3884 23.5032 31.5105 23.5032ZM43.42 23.3376L43.1926 20.4862H40.5588L39.2523 23.3376H35.9941L41.6773 11.6624H45.2099L46.5782 23.3376H43.42Z" fill="#C4C4C4"/>
<path d="M30.7946 15.2529C30.673 15.5656 30.5486 15.8626 30.4261 16.1253L29.5576 18.0121H31.0358L30.8534 16.0154C30.8387 15.7901 30.8171 15.5304 30.7946 15.2529Z" fill="white"/>
</svg>
