<svg width="55" height="35" viewBox="0 0 55 35" fill="none" xmlns="http://www.w3.org/2000/svg">
<path d="M30.2483 11.5923H23.9306C23.5271 12.3563 23.2594 12.9338 23.1838 13.0773H30.8469C30.6738 12.5667 30.4749 12.0723 30.2483 11.5923Z" fill="#C4C4C4"/>
<path d="M20.728 15.2705C20.1208 15.2705 19.592 15.348 18.7697 15.5564L18.5545 16.7794L18.6913 16.744L18.9265 16.6847C19.2784 16.591 19.8071 16.5346 20.2776 16.5346C21.0407 16.5346 21.3352 16.6685 21.3352 17.0271C21.3352 17.1265 21.3151 17.2011 21.2759 17.3799C21.0215 17.3531 20.7863 17.3378 20.6104 17.3378C18.7897 17.3378 17.7322 18.1114 17.7322 19.431C17.7322 20.3088 18.3394 20.914 19.221 20.914C19.9649 20.914 20.5339 20.7046 20.9441 20.2581L20.9049 20.8203H22.2751L22.2942 20.6731L22.3143 20.4866L22.3535 20.2112L22.4118 19.867L22.7647 17.9374C22.8632 17.333 22.8823 17.1294 22.8823 16.8616C22.8823 15.8232 22.1384 15.2705 20.728 15.2705ZM19.9066 19.7628C19.5346 19.7628 19.3195 19.5447 19.3195 19.2091C19.3195 18.6603 19.7899 18.383 20.7098 18.383C20.8274 18.383 20.9058 18.3858 21.0827 18.404C21.0426 19.2072 20.5721 19.7628 19.9066 19.7628Z" fill="#C4C4C4"/>
<path d="M15.5791 14.145L13.7576 18.2806L13.6399 14.145H11.0744L9.80078 20.8232H11.2886L12.2678 15.7208L12.5422 20.8232H14.031L16.2829 15.6883L15.3037 20.8232H16.9484L18.2412 14.145H15.5791Z" fill="#C4C4C4"/>
<path d="M45.4845 20.3232C45.4835 20.2869 45.4644 20.2496 45.4453 20.2295C45.4061 20.2104 45.3669 20.2085 45.3477 20.2085H45.1909V20.5833H45.2693V20.437H45.3277L45.3869 20.5833H45.4845L45.4261 20.4208C45.4653 20.4045 45.4845 20.3644 45.4845 20.3232ZM45.3669 20.3653C45.3477 20.373 45.3277 20.373 45.3277 20.373H45.2684V20.2754H45.3095C45.3286 20.2754 45.3678 20.2754 45.3678 20.284C45.3879 20.2917 45.3879 20.307 45.3879 20.3213C45.3879 20.3376 45.386 20.3567 45.3669 20.3653Z" fill="#C4C4C4"/>
<path d="M48.9226 25.0986C48.9207 25.0613 48.9025 25.024 48.8824 25.0049C48.8432 24.9858 48.804 24.9839 48.7839 24.9839H48.6281V25.3587H48.7065V25.2115H48.7648L48.8241 25.3587H48.9226L48.8633 25.1952C48.9025 25.1809 48.9226 25.1407 48.9226 25.0986ZM48.804 25.1407C48.7839 25.1484 48.7648 25.1484 48.7648 25.1484H48.7055V25.0518H48.7447C48.7648 25.0518 48.804 25.0518 48.804 25.0594C48.8241 25.0671 48.8241 25.0833 48.8241 25.0967C48.8241 25.1139 48.8241 25.1311 48.804 25.1407Z" fill="#C4C4C4"/>
<path d="M52.6162 0H1.39032C0.621534 0 0 0.62249 0 1.39032V33.6097C0 34.3775 0.621534 35 1.39032 35H52.6162C53.385 35 54.0065 34.3775 54.0065 33.6097V1.39032C54.0065 0.62249 53.385 0 52.6162 0ZM49.1576 25.415C49.1174 25.4877 49.0629 25.5431 48.9922 25.5823C48.9214 25.6215 48.8468 25.6416 48.7703 25.6416C48.6919 25.6416 48.6173 25.6215 48.5466 25.5823C48.4768 25.5431 48.4213 25.4877 48.3802 25.415C48.341 25.3452 48.3209 25.2706 48.3209 25.1932C48.3209 25.1157 48.341 25.0421 48.3811 24.9694C48.4203 24.8967 48.4777 24.8422 48.5485 24.803C48.6202 24.7657 48.6929 24.7457 48.7694 24.7457C48.8449 24.7457 48.9176 24.7657 48.9883 24.803C49.06 24.8422 49.1165 24.8967 49.1557 24.9694C49.1958 25.0421 49.215 25.1167 49.215 25.1932C49.215 25.2696 49.1977 25.3471 49.1576 25.415ZM50.1597 17.5005C50.1616 25.1549 43.9596 31.3626 36.3043 31.3645C32.7242 31.3655 29.4597 30.0086 27.0004 27.7797C24.541 30.0048 21.2832 31.3607 17.7089 31.3607C10.0583 31.3607 3.84873 25.152 3.84873 17.5005C3.84873 9.87952 10.0096 3.68904 17.62 3.63932C17.6496 3.63932 17.6793 3.63932 17.7089 3.63932C21.2832 3.63932 24.542 4.99522 27.0013 7.22031C29.4597 4.99426 32.7204 3.63741 36.2976 3.63645C43.9529 3.63358 50.1597 9.8384 50.1616 17.4938C50.1597 17.4957 50.1597 17.4967 50.1597 17.5005Z" fill="#C4C4C4"/>
<path d="M28.373 8.65186H25.7396C25.3858 9.12996 25.053 9.63866 24.7518 10.1359H29.4497C29.1236 9.61762 28.7631 9.12231 28.373 8.65186Z" fill="#C4C4C4"/>
<path d="M31.2857 16.5532C31.6194 16.5532 32.0497 16.5819 32.4809 16.6326L32.7162 15.3771C32.2849 15.3178 31.6385 15.27 31.2465 15.27C29.4067 15.27 28.7584 16.1057 28.7594 17.105C28.7594 17.7896 29.1514 18.2629 30.0321 18.6187C30.6966 18.8893 30.7961 18.9696 30.7961 19.2182C30.7961 19.5548 30.5035 19.7078 29.8571 19.7078C29.3465 19.7078 28.8971 19.6408 28.3673 19.4936L28.1331 20.7462L28.2115 20.7606L28.505 20.8141C28.6026 20.8332 28.7594 20.8495 28.9554 20.8629C29.3465 20.8916 29.6391 20.9078 29.8552 20.9078C31.6184 20.9078 32.4216 20.335 32.4216 19.0968C32.4216 18.3509 32.0889 17.9158 31.2465 17.585C30.5609 17.3106 30.4825 17.2484 30.4825 16.9941C30.4825 16.7024 30.7559 16.5532 31.2857 16.5532Z" fill="#C4C4C4"/>
<path d="M39.8665 15.3799C39.7871 15.3608 39.7278 15.3502 39.7278 15.3474C39.6695 15.3388 39.6102 15.334 39.5509 15.334C39.0212 15.334 38.6301 15.5749 38.1214 16.2166L38.2782 15.3923H36.7894L35.7902 20.8236H37.4358C38.0239 17.5027 38.2773 16.9194 39.0604 16.9194C39.1197 16.9194 39.178 16.9242 39.2564 16.9328L39.4524 16.9729L40.0424 15.4392C39.9057 15.3866 39.8856 15.3866 39.8665 15.3799Z" fill="#C4C4C4"/>
<path d="M34.9277 16.7129H35.7701L36.0053 15.3914H35.1639L35.3991 14.1445H33.7736L33.0096 18.2906L32.9311 18.72L32.8327 19.2545C32.8126 19.4266 32.7935 19.5892 32.7935 19.7412C32.7935 20.5119 33.2438 20.9345 34.0862 20.9345C34.4582 20.9345 34.811 20.881 35.2614 20.7576L35.4766 19.5528C35.3609 19.5882 35.2232 19.6054 35.0463 19.6054C34.6552 19.6054 34.4773 19.4849 34.4773 19.2038C34.4773 19.1541 34.4773 19.0786 34.4974 18.9791L34.9277 16.7129Z" fill="#C4C4C4"/>
<path d="M45.3277 19.9741C45.0925 19.9741 44.8965 20.1644 44.8965 20.3968C44.8965 20.632 45.0925 20.8223 45.3277 20.8223C45.563 20.8223 45.759 20.632 45.759 20.3968C45.759 20.1654 45.563 19.9741 45.3277 19.9741ZM45.3277 20.7209C45.1518 20.7209 44.995 20.5765 44.995 20.3968C44.995 20.2189 45.1518 20.0755 45.3277 20.0755C45.5056 20.0755 45.6414 20.2189 45.6414 20.3968C45.6414 20.5765 45.5056 20.7209 45.3277 20.7209Z" fill="#C4C4C4"/>
<path d="M42.5861 15.2373C40.6278 15.2373 39.3551 16.5425 39.3551 18.4655C39.3551 19.8433 40.0981 20.9698 41.9608 20.9698C43.6437 20.9698 44.8973 20.1675 45.1526 18.3622C45.1918 18.0466 45.1918 18.0246 45.1918 17.6881C45.1918 16.3092 44.291 15.2373 42.5861 15.2373ZM43.3893 18.3153C43.2526 19.1616 42.4895 19.6464 42.1367 19.6464C41.5486 19.6578 41.1968 19.1616 41.1968 18.4243C41.1968 17.5523 41.7055 16.5626 42.5479 16.5626C43.2134 16.5626 43.4477 17.101 43.4477 17.667C43.4477 17.9023 43.4285 18.1164 43.3893 18.3153Z" fill="#C4C4C4"/>
<path d="M28.0516 18.5715C28.1903 18.0208 28.2496 17.6306 28.2496 17.229C28.2496 16.0252 27.3871 15.2573 26.0369 15.2573C24.3913 15.2573 23.1779 16.6295 23.1779 18.4912C23.1769 20.0929 24.1369 20.9257 25.9776 20.9257C26.5456 20.9257 27.0935 20.854 27.6424 20.7067L27.9159 19.347C27.3287 19.5861 26.8 19.6922 26.2119 19.6922C25.2719 19.6922 24.7824 19.3719 24.7824 18.7427C24.7824 18.692 24.7824 18.6547 24.8025 18.5715H28.0516ZM26.0168 16.5004C26.5064 16.5004 26.7808 16.7576 26.7808 17.1984C26.7808 17.2711 26.7808 17.361 26.7808 17.4776L24.9593 17.4757C25.1161 16.8446 25.489 16.5004 26.0168 16.5004Z" fill="#C4C4C4"/>
<path d="M23.7307 23.353C23.9707 23.8675 24.2509 24.358 24.5492 24.8371H29.467C29.7653 24.3599 30.035 23.8656 30.274 23.353H23.7307Z" fill="#C4C4C4"/>
<path d="M25.5811 26.2612C26.02 26.7996 26.4847 27.3131 26.9982 27.7759C27.0096 27.7653 27.0221 27.7567 27.0335 27.7453H27.0354C27.5403 27.2853 28.0117 26.79 28.443 26.2612H25.5811Z" fill="#C4C4C4"/>
</svg>
