<svg width="58" height="35" viewBox="0 0 58 35" fill="none" xmlns="http://www.w3.org/2000/svg">
<path fill-rule="evenodd" clip-rule="evenodd" d="M0 35V0H57.179V35H0ZM45.2857 12H37.3143C37.7428 14.6571 40.3143 17.1429 43.1428 17.1429H49.4857C49.5714 16.8857 49.5714 16.5429 49.5714 16.2857C49.5714 13.8857 47.6857 12 45.2857 12ZM38 24V17.5714H49.3143C48.8 19.2857 47.1714 20.5714 45.2857 20.5714H41.8571V24H38ZM24.2857 12V24H27.7143C27.7143 24 28.5714 24 29 23.1429L32 17.1429H32.4286V24H36.2857V12H32.8571C32.8571 12 32 12.0857 31.5714 12.8571L28.5714 18.8571H28.1429V12H24.2857ZM8 12V24H11.8571V17.5714H12.2857L14.4286 24H16.1429L18.2857 17.5714H18.7143V24H22.5714V12H18.7143C18.7143 12 17.6 12 17 13.7143C15.6286 17.7429 15.2857 18.8571 15.2857 18.8571C15.2857 18.8571 15.1143 18.2571 13.5714 13.7143C12.9714 12 11.8571 12 11.8571 12H8Z" fill="#C4C4C4"/>
</svg>
