<svg width="55" height="35" viewBox="0 0 55 35" fill="none" xmlns="http://www.w3.org/2000/svg">
<path d="M14.3913 15.1782C13.3797 15.1782 12.6042 15.5033 12.6042 15.5033L12.39 16.7751C12.39 16.7751 13.0297 16.515 13.9983 16.515C14.5482 16.515 14.9498 16.5762 14.9498 17.0227C14.9498 17.2943 14.901 17.3947 14.901 17.3947C14.901 17.3947 14.4678 17.3593 14.267 17.3593C12.9905 17.3593 11.6499 17.9025 11.6499 19.5462C11.6499 20.8409 12.5287 21.1363 13.0746 21.1363C14.116 21.1363 14.5654 20.4613 14.5883 20.4593L14.5396 21.0235H15.839L16.4185 16.9596C16.4175 15.2337 14.9134 15.1782 14.3913 15.1782ZM13.6627 19.9C13.2047 19.9 13.0852 19.551 13.0852 19.3425C13.0852 18.939 13.3041 18.4532 14.3856 18.4532C14.638 18.4542 14.6648 18.48 14.7069 18.4877C14.7356 18.7363 14.552 19.9 13.6627 19.9Z" fill="#C4C4C4"/>
<path d="M19.0846 16.5406C19.2921 16.5406 20.0924 16.6065 20.0924 16.6065L20.2789 15.3042C20.2789 15.3042 19.7606 15.1885 18.9173 15.1885C17.8253 15.1885 16.718 15.6245 16.718 17.1152C16.718 18.8058 18.5654 18.6337 18.5654 19.347C18.5654 19.8213 18.049 19.8605 17.6512 19.8605C16.9618 19.8605 16.3422 19.6253 16.3403 19.6348L16.1433 20.9267C16.1787 20.9362 16.5612 21.1064 17.7995 21.1064C18.1313 21.1064 20.0312 21.1925 20.0312 19.2313C20.0312 17.3973 18.2728 17.7597 18.2728 17.0225C18.2728 16.6553 18.5587 16.5406 19.0846 16.5406Z" fill="#C4C4C4"/>
<path d="M22.1897 16.707H22.9709L23.1592 15.3186H22.423L22.5731 14.458H21.0977C21.0652 14.4896 20.2266 19.3117 20.2266 19.8969C20.2266 20.768 20.7152 21.1543 21.4027 21.1476C21.941 21.1438 22.3608 20.9946 22.509 20.9535L22.6936 19.699C22.5922 19.699 22.444 19.743 22.313 19.743C21.7995 19.743 21.7431 19.4685 21.7756 19.2668L22.1897 16.707Z" fill="#C4C4C4"/>
<path d="M28.3731 8.65186H25.7397C25.3859 9.12996 25.0532 9.63866 24.752 10.1359H29.4498C29.1237 9.61762 28.7632 9.12231 28.3731 8.65186Z" fill="#C4C4C4"/>
<path d="M48.92 25.3452C48.8913 25.3022 48.8674 25.2697 48.8483 25.2496C48.8378 25.2401 48.8244 25.2295 48.8072 25.2248C48.8483 25.2219 48.8827 25.2066 48.9076 25.1808C48.9315 25.155 48.9449 25.1244 48.9449 25.089C48.9449 25.0641 48.9372 25.0402 48.9229 25.0182C48.9085 24.9962 48.8875 24.98 48.8617 24.9714C48.8378 24.9618 48.7966 24.957 48.7402 24.957H48.5739V25.4399H48.6523V25.2353H48.6972C48.724 25.2353 48.746 25.241 48.7584 25.2525C48.7785 25.2688 48.8072 25.306 48.8406 25.3644L48.8827 25.4409H48.9793L48.92 25.3452ZM48.746 25.1712H48.6504V25.0259H48.7402C48.7775 25.0259 48.8024 25.0287 48.8167 25.0345C48.832 25.0402 48.8416 25.0488 48.8502 25.0593C48.8578 25.0708 48.8617 25.0833 48.8617 25.0966C48.8617 25.1186 48.854 25.1378 48.8378 25.1511C48.8215 25.1636 48.79 25.1712 48.746 25.1712Z" fill="#C4C4C4"/>
<path d="M30.2483 11.5923H23.9306C23.5271 12.3563 23.2594 12.9338 23.1838 13.0773H30.8469C30.6738 12.5667 30.4749 12.0723 30.2483 11.5923Z" fill="#C4C4C4"/>
<path d="M9.84178 14.0024L8.38739 18.3149L8.31185 14.0024H6.15847L4.97852 21.0296H6.40231L7.30018 15.7322L7.43214 21.0296H8.44859L10.3447 15.7322L9.50424 21.0296H11.015L12.1787 14.0024H9.84178Z" fill="#C4C4C4"/>
<path d="M38.3139 15.1782C37.3003 15.1782 36.5258 15.5033 36.5258 15.5033L36.3107 16.7751C36.3107 16.7751 36.9513 16.515 37.919 16.515C38.4688 16.515 38.8714 16.5762 38.8714 17.0227C38.8714 17.2943 38.8207 17.3947 38.8207 17.3947C38.8207 17.3947 38.3885 17.3593 38.1858 17.3593C36.9102 17.3593 35.5706 17.9025 35.5706 19.5462C35.5706 20.8409 36.4503 21.1363 36.9953 21.1363C38.0357 21.1363 38.4851 20.4613 38.509 20.4593L38.4602 21.0235H39.7587L40.3382 16.9596C40.3411 15.2337 38.836 15.1782 38.3139 15.1782ZM37.5872 19.9C37.1282 19.9 37.0096 19.551 37.0096 19.3425C37.0096 18.939 37.2286 18.4532 38.3101 18.4532C38.5616 18.4542 38.5883 18.48 38.6314 18.4877C38.6591 18.7363 38.4746 19.9 37.5872 19.9Z" fill="#C4C4C4"/>
<path d="M48.9669 20.3824C48.9277 20.3098 48.8704 20.2543 48.7987 20.216C48.7279 20.1768 48.6552 20.1577 48.5787 20.1577C48.5051 20.1587 48.4315 20.1778 48.3588 20.216C48.2871 20.2543 48.2316 20.3098 48.1915 20.3824C48.1513 20.4541 48.1312 20.5287 48.1312 20.6062C48.1312 20.6836 48.1513 20.7573 48.1915 20.828C48.2307 20.8988 48.2861 20.9552 48.3569 20.9954C48.4286 21.0346 48.5022 21.0546 48.5787 21.0546C48.6571 21.0546 48.7317 21.0346 48.8015 20.9954C48.8723 20.9552 48.9277 20.8988 48.9669 20.828C49.0081 20.7573 49.0262 20.6836 49.0262 20.6062C49.0262 20.5268 49.0071 20.4522 48.9669 20.3824ZM48.9048 20.7907C48.8723 20.85 48.8264 20.8949 48.7661 20.9303C48.7069 20.9628 48.6457 20.9801 48.5816 20.9801C48.5166 20.9801 48.4544 20.9628 48.3961 20.9303C48.3359 20.8969 48.2909 20.851 48.2565 20.7907C48.2221 20.7305 48.2068 20.6693 48.2068 20.6052C48.2068 20.5412 48.223 20.479 48.2584 20.4188C48.2919 20.3595 48.3368 20.3136 48.398 20.2801C48.4592 20.2466 48.5194 20.2323 48.5816 20.2323C48.6438 20.2323 48.705 20.2476 48.7633 20.2801C48.8245 20.3136 48.8694 20.3585 48.9029 20.4188C48.9364 20.479 48.9545 20.5412 48.9545 20.6052C48.9545 20.6693 48.9383 20.7314 48.9048 20.7907Z" fill="#C4C4C4"/>
<path d="M48.7309 20.7583C48.7032 20.7134 48.6783 20.6818 48.6601 20.6627C48.6487 20.6522 48.6362 20.6436 48.619 20.6379C48.6601 20.635 48.6936 20.6197 48.7185 20.5939C48.7424 20.569 48.7567 20.5365 48.7567 20.5021C48.7567 20.4782 48.7491 20.4533 48.7338 20.4313C48.7185 20.4103 48.6984 20.394 48.6745 20.3845C48.6506 20.3749 48.6085 20.3701 48.5521 20.3701H48.3838V20.852H48.4622V20.6474H48.5071C48.5349 20.6474 48.5569 20.6532 48.5702 20.6637C48.5903 20.6809 48.6171 20.7172 48.6525 20.7775L48.6936 20.853H48.7902L48.7309 20.7583ZM48.5588 20.5814H48.4641V20.4351H48.5521C48.5903 20.4351 48.6152 20.438 48.6305 20.4428C48.6429 20.4495 48.6544 20.4562 48.662 20.4686C48.6707 20.481 48.6745 20.4916 48.6745 20.5078C48.6745 20.5288 48.6659 20.547 48.6515 20.5604C48.6334 20.5767 48.6037 20.5814 48.5588 20.5814Z" fill="#C4C4C4"/>
<path d="M43.3283 15.2476C42.6676 15.2476 42.1771 16.1493 42.1771 16.1493L42.309 15.3202H40.934L40.0132 21.0403H41.5278C41.9591 18.5962 42.0375 16.614 43.0616 16.9764C43.2423 16.0316 43.4163 15.6654 43.6123 15.2667C43.6123 15.2676 43.5205 15.2476 43.3283 15.2476Z" fill="#C4C4C4"/>
<path d="M47.1337 14.0102L46.8153 15.9848C46.8153 15.9848 46.2607 15.2169 45.3906 15.2169C44.0375 15.2179 42.9111 16.8482 42.9111 18.7205C42.9111 19.9301 43.5126 21.1148 44.7404 21.1148C45.6248 21.1148 46.1144 20.498 46.1144 20.498L46.0504 21.0249H47.4856L48.6139 14.0073L47.1337 14.0102ZM45.2624 19.6805C44.7308 19.6805 44.4822 19.2349 44.4822 18.535C44.4822 17.3904 44.9957 16.6359 45.6449 16.6359C46.1747 16.6369 46.4472 17.0012 46.4472 17.8599C46.4472 18.6392 46.0618 19.6805 45.2624 19.6805Z" fill="#C4C4C4"/>
<path d="M52.6162 0H1.39032C0.621534 0 0 0.62249 0 1.39032V33.6097C0 34.3775 0.621534 35 1.39032 35H52.6162C53.385 35 54.0065 34.3775 54.0065 33.6097V1.39032C54.0065 0.62249 53.385 0 52.6162 0ZM49.1576 25.415C49.1174 25.4877 49.0629 25.5431 48.9922 25.5823C48.9214 25.6215 48.8468 25.6416 48.7703 25.6416C48.6919 25.6416 48.6173 25.6215 48.5466 25.5823C48.4768 25.5431 48.4213 25.4877 48.3802 25.415C48.341 25.3452 48.3209 25.2706 48.3209 25.1932C48.3209 25.1157 48.341 25.0421 48.3811 24.9694C48.4203 24.8967 48.4777 24.8422 48.5485 24.803C48.6202 24.7657 48.6929 24.7457 48.7694 24.7457C48.8449 24.7457 48.9176 24.7657 48.9883 24.803C49.06 24.8422 49.1165 24.8967 49.1557 24.9694C49.1958 25.0421 49.215 25.1167 49.215 25.1932C49.215 25.2696 49.1977 25.3471 49.1576 25.415ZM50.1597 17.5005C50.1616 25.1549 43.9596 31.3626 36.3043 31.3645C32.7242 31.3655 29.4597 30.0086 27.0004 27.7797C24.541 30.0048 21.2832 31.3607 17.7089 31.3607C10.0583 31.3607 3.84873 25.152 3.84873 17.5005C3.84873 9.87952 10.0096 3.68904 17.62 3.63932C17.6496 3.63932 17.6793 3.63932 17.7089 3.63932C21.2832 3.63932 24.542 4.99522 27.0013 7.22031C29.4597 4.99426 32.7204 3.63741 36.2976 3.63645C43.9529 3.63358 50.1597 9.8384 50.1616 17.4938C50.1597 17.4957 50.1597 17.4967 50.1597 17.5005Z" fill="#C4C4C4"/>
<path d="M25.5812 26.2642C26.0201 26.8015 26.4848 27.3141 26.9983 27.7788C27.0097 27.7683 27.0222 27.7587 27.0337 27.7491C27.0337 27.7491 27.0327 27.7491 27.0327 27.7482H27.0356C27.5404 27.2883 28.0119 26.7929 28.4431 26.2642H25.5812Z" fill="#C4C4C4"/>
<path d="M27.4686 18.6564C27.4686 18.6564 27.6627 17.7002 27.6627 17.311C27.6627 16.3385 27.1788 15.1528 25.559 15.1528C24.075 15.1538 22.9763 16.7526 22.9763 18.5598C22.9763 20.6453 24.3523 21.1406 25.5256 21.1406C26.608 21.1406 27.0842 20.8977 27.0842 20.8977L27.3443 19.4749C27.3443 19.4749 26.521 19.8382 25.777 19.8382C24.1926 19.8382 24.4699 18.6564 24.4699 18.6564H27.4686ZM25.5638 16.4772C26.3967 16.4772 26.2427 17.4133 26.2427 17.4879H24.6047C24.6047 17.3913 24.7596 16.4772 25.5638 16.4772Z" fill="#C4C4C4"/>
<path d="M34.3898 15.3489C35.1404 15.3489 35.7438 15.7705 35.7438 15.7705L35.9848 14.2071C35.9848 14.2071 35.0917 13.8457 34.3229 13.8457C32.6199 13.8457 30.9628 15.324 30.9628 18.0999C30.9628 19.9406 31.8568 21.1559 33.6182 21.1559C34.1154 21.1559 34.909 20.9541 34.909 20.9541L35.1729 19.3439C35.1729 19.3439 34.45 19.7063 33.9528 19.7063C32.9048 19.7053 32.485 18.9059 32.485 18.0492C32.485 16.306 33.3858 15.3489 34.3898 15.3489Z" fill="#C4C4C4"/>
<path d="M23.7312 23.3525C23.9712 23.8679 24.2504 24.3585 24.5497 24.8366H29.4675C29.7658 24.3604 30.0345 23.8651 30.2745 23.3525H23.7312Z" fill="#C4C4C4"/>
<path d="M30.9361 15.2496C30.2753 15.2496 29.7858 16.1513 29.7858 16.1513L29.9187 15.3223H28.5446L27.6238 21.0423H29.1384C29.5677 18.5992 29.6481 16.6161 30.6722 16.9785C30.8519 16.0328 31.025 15.6666 31.221 15.2669C31.221 15.2669 31.1292 15.2477 30.9361 15.2496Z" fill="#C4C4C4"/>
</svg>
